HIERARCHY
ROOT Hips
{
	OFFSET 0.000000 0.000000 0.000000
	CHANNELS 6 Xposition Yposition Zposition Zrotation Yrotation Xrotation 
	JOINT LeftUpLeg_virtual
	{
		OFFSET 0.000000 0.000000 0.000000
		CHANNELS 3 Zrotation Yrotation Xrotation
		JOINT LeftUpLeg
		{
			OFFSET 10.205400 -3.823500 0.155100
			CHANNELS 3 Zrotation Yrotation Xrotation
			JOINT LeftLeg
			{
				OFFSET 0.708757 -12.982077 0.567790
				CHANNELS 3 Zrotation Yrotation Xrotation
				JOINT LeftFoot
				{
					OFFSET -0.708756 -10.717838 -2.184338
					CHANNELS 3 Zrotation Yrotation Xrotation
					JOINT LeftToeBase
					{
						OFFSET 0.108149 -7.191104 7.560241
						CHANNELS 3 Zrotation Yrotation Xrotation
						End Site
						{
							OFFSET 0.000000 0.000000 0.000000
						}
					}
				}
			}
		}
	}
	JOINT RightUpLeg_virtual
	{
		OFFSET 0.000000 0.000000 0.000000
		CHANNELS 3 Zrotation Yrotation Xrotation
		JOINT RightUpLeg
		{
			OFFSET -10.205400 -3.823500 0.005500
			CHANNELS 3 Zrotation Yrotation Xrotation
			JOINT RightLeg
			{
				OFFSET -0.708756 -12.982134 0.610632
				CHANNELS 3 Zrotation Yrotation Xrotation
				JOINT RightFoot
				{
					OFFSET 0.708754 -10.717769 -1.945823
					CHANNELS 3 Zrotation Yrotation Xrotation
					JOINT RightToeBase
					{
						OFFSET -0.108140 -7.191069 7.372968
						CHANNELS 3 Zrotation Yrotation Xrotation
						End Site
						{
							OFFSET 0.000000 0.000000 0.000000
						}
					}
				}
			}
		}
	}
	JOINT Spine_virtual
	{
		OFFSET 0.000000 0.000000 0.000000
		CHANNELS 3 Zrotation Yrotation Xrotation
		JOINT Spine
		{
			OFFSET 0.000000 6.876099 0.125700
			CHANNELS 3 Zrotation Yrotation Xrotation
			JOINT Spine1
			{
				OFFSET 0.000000 8.022060 0.146608
				CHANNELS 3 Zrotation Yrotation Xrotation
				JOINT Spine2
				{
					OFFSET 0.000000 9.168068 0.167552
					CHANNELS 3 Zrotation Yrotation Xrotation
					JOINT Neck_virtual
					{
						OFFSET 0.000000 0.000000 0.000000
						CHANNELS 3 Zrotation Yrotation Xrotation
						JOINT Neck
						{
							OFFSET 0.000000 10.314075 0.188496
							CHANNELS 3 Zrotation Yrotation Xrotation
							JOINT Head
							{
								OFFSET 0.000000 7.643700 -2.377400
								CHANNELS 3 Zrotation Yrotation Xrotation
								End Site
								{
									OFFSET 0.000000 0.000000 0.000000
								}
							}
						}
					}
					JOINT LeftShoulder_virtual
					{
						OFFSET 0.000000 0.000000 0.000000
						CHANNELS 3 Zrotation Yrotation Xrotation
						JOINT LeftShoulder
						{
							OFFSET 4.392200 8.824978 0.174984
							CHANNELS 3 Zrotation Yrotation Xrotation
							JOINT LeftArm
							{
								OFFSET 8.771219 -2.981674 -0.026999
								CHANNELS 3 Zrotation Yrotation Xrotation
								JOINT LeftForeArm
								{
									OFFSET 8.512804 0.000000 -0.000000
									CHANNELS 3 Zrotation Yrotation Xrotation
									JOINT LeftHand
									{
										OFFSET 18.484802 0.000000 -0.000000
										CHANNELS 3 Zrotation Yrotation Xrotation
										End Site
										{
											OFFSET 0.000000 0.000000 0.000000
										}
									}
								}
							}
						}
					}
					JOINT RightShoulder_virtual
					{
						OFFSET 0.000000 0.000000 0.000000
						CHANNELS 3 Zrotation Yrotation Xrotation
						JOINT RightShoulder
						{
							OFFSET -4.392200 8.824993 0.141379
							CHANNELS 3 Zrotation Yrotation Xrotation
							JOINT RightArm
							{
								OFFSET -8.771282 -2.981682 -0.094208
								CHANNELS 3 Zrotation Yrotation Xrotation
								JOINT RightForeArm
								{
									OFFSET -8.494598 0.000000 0.000000
									CHANNELS 3 Zrotation Yrotation Xrotation
									JOINT RightHand
									{
										OFFSET -18.483803 0.000000 0.000001
										CHANNELS 3 Zrotation Yrotation Xrotation
										End Site
										{
											OFFSET 0.000000 0.000000 0.000000
										}
									}
								}
							}
						}
					}
				}
			}
		}
	}
}
MOTION
Frames: 11
Frame Time: 0.033333
-1.579997 35.917267 17.612043 -179.956428 3.662886 -179.900339 -3.272372 -3.321843 9.551552 -15.842298 4.810044 -17.647703 16.463112 7.758228 21.755271 0.756604 -3.331127 4.571641 0.000000 0.000000 0.000000 1.300114 -0.756904 7.712504 0.482167 1.683361 -12.130282 -7.290696 1.346608 16.602161 6.594606 2.432200 4.861128 0.000000 0.000000 0.000000 1.029406 0.643884 -2.744841 -4.292978 2.515224 -6.566619 0.350585 -3.265301 3.982939 -0.004506 -0.002390 0.010920 0.071326 -1.673750 6.632444 -0.437089 1.128098 15.712184 0.000000 0.000000 0.000000 1.592013 -0.814863 3.666374 -7.827235 0.730502 -6.295781 -5.256413 13.562672 -38.316941 0.454956 -43.840221 -2.949815 0.000000 0.000000 0.000000 -1.833663 -0.070882 3.206567 21.228098 -4.907946 -12.060552 10.001129 -14.812595 -51.020963 0.092795 30.192680 3.505858 0.000000 0.000000 0.000000 
-1.586705 35.913105 17.638237 -179.857637 3.609555 -179.867458 -3.305484 -3.391670 9.619165 -15.830802 5.052312 -17.614815 16.423074 7.837378 21.806892 0.693456 -3.423050 4.545335 0.000000 0.000000 0.000000 1.406428 -0.707908 7.764805 0.491875 1.706988 -12.098462 -7.418825 1.342524 16.761549 6.467390 2.291576 4.828702 0.000000 0.000000 0.000000 1.055957 0.703958 -2.739892 -4.186830 2.517048 -6.559273 0.354629 -3.216990 4.007942 -0.039290 0.018086 0.031620 0.063495 -1.643876 6.724905 -0.381509 0.983243 15.814787 0.000000 0.000000 0.000000 1.563431 -0.807839 3.729111 -7.827528 0.711646 -6.258931 -5.230836 13.538997 -38.257010 0.498398 -43.700623 -2.966230 0.000000 0.000000 0.000000 -1.873070 -0.080531 3.228725 21.349167 -4.920439 -11.976194 9.793873 -14.772719 -51.210853 0.084502 30.062538 3.521808 0.000000 0.000000 0.000000 
-1.588794 35.914242 17.654076 -179.924682 3.628535 -179.779608 -3.363792 -3.357960 9.580970 -15.846541 5.026410 -17.696861 16.438459 7.880366 21.774795 0.702051 -3.469593 4.594677 0.000000 0.000000 0.000000 1.359906 -0.629765 7.752943 0.512965 1.714698 -12.173111 -7.450902 1.416632 16.737069 6.498926 2.200295 4.868012 0.000000 0.000000 0.000000 0.974568 0.722871 -2.817634 -4.126543 2.488118 -6.550453 0.334202 -3.175574 4.045285 -0.024275 0.018813 -0.039716 0.042095 -1.594287 6.829563 -0.326873 0.784594 15.865215 0.000000 0.000000 0.000000 1.570473 -0.742469 3.760376 -7.844729 0.763190 -6.313698 -5.016965 13.488367 -38.021764 0.466714 -43.647661 -2.890169 0.000000 0.000000 0.000000 -1.884168 -0.036635 3.311470 21.427497 -4.915853 -11.935545 9.763522 -14.779278 -51.479672 0.156644 30.068316 3.611474 0.000000 0.000000 0.000000 
-1.588911 35.918724 17.669071 -179.872403 3.611055 -179.887730 -3.344374 -3.351329 9.615919 -15.836704 4.962794 -17.689439 16.491114 7.847138 21.824532 0.718144 -3.508707 4.611996 0.000000 0.000000 0.000000 1.430393 -0.674672 7.819416 0.494028 1.722115 -12.160642 -7.488481 1.432852 16.680200 6.526930 2.167645 4.851471 0.000000 0.000000 0.000000 0.965392 0.740055 -2.649543 -4.028405 2.489394 -6.508204 0.341920 -3.123556 4.023101 -0.005300 0.025229 0.021231 -0.005118 -1.527207 6.762262 -0.236582 0.542518 15.994952 0.000000 0.000000 0.000000 1.491132 -0.746062 3.723522 -7.914474 0.776554 -6.263448 -4.870600 13.340054 -37.751378 0.511731 -43.556878 -2.819492 0.000000 0.000000 0.000000 -1.958885 -0.027846 3.224440 21.542388 -4.980749 -11.709529 9.779823 -14.843686 -51.507327 0.067417 30.014474 3.511567 0.000000 0.000000 0.000000 
-1.586066 35.924881 17.684855 -179.858811 3.616821 -179.864262 -3.363114 -3.410955 9.589187 -15.804829 4.904205 -17.699288 16.541168 7.803390 21.855000 0.796030 -3.474446 4.615130 0.000000 0.000000 0.000000 1.454772 -0.749454 7.806261 0.481142 1.639613 -12.176258 -7.469621 1.397254 16.566059 6.656188 2.182650 4.957745 0.000000 0.000000 0.000000 0.939543 0.665939 -2.557429 -3.953419 2.454736 -6.467357 0.342512 -3.122932 3.996236 -0.000686 -0.012896 0.024964 -0.044106 -1.434612 6.813318 -0.174616 0.265300 16.176075 0.000000 0.000000 0.000000 1.469593 -0.648952 3.662619 -8.004014 0.872346 -6.042791 -4.772593 13.215952 -37.568035 0.652193 -43.503807 -2.790855 0.000000 0.000000 0.000000 -1.979167 0.089612 3.307459 21.575919 -4.936956 -11.632526 9.964610 -15.010606 -51.826861 0.270463 30.051968 3.687640 0.000000 0.000000 0.000000 
-1.579264 35.922920 17.696163 -179.929217 3.597353 -179.902702 -3.458344 -3.492556 9.560324 -15.815267 4.764082 -17.640251 16.590490 7.748402 21.874401 0.871412 -3.428240 4.608806 0.000000 0.000000 0.000000 1.375720 -0.855320 7.757810 0.482484 1.506765 -12.177042 -7.428600 1.412837 16.542411 6.818968 2.214913 4.988778 0.000000 0.000000 0.000000 0.861843 0.721316 -2.434140 -3.951252 2.497660 -6.404369 0.321436 -3.165654 3.970502 -0.029379 -0.070725 0.029608 -0.008716 -1.414747 6.802824 -0.093794 0.011657 16.352427 0.000000 0.000000 0.000000 1.484859 -0.601471 3.634718 -8.022490 0.891583 -6.018531 -4.996638 13.079011 -37.487227 0.729473 -43.544563 -2.622467 0.000000 0.000000 0.000000 -1.953125 0.142965 3.300856 21.594391 -4.920216 -11.369842 10.146547 -15.175529 -52.287144 0.477945 30.056958 3.789664 0.000000 0.000000 0.000000 
-1.575144 35.918480 17.700073 -179.854508 3.603812 -179.866912 -3.398129 -3.550795 9.492790 -15.797237 4.682980 -17.578842 16.649204 7.685756 21.910011 0.964076 -3.344467 4.506137 0.000000 0.000000 0.000000 1.397022 -0.916056 7.684668 0.505067 1.395505 -12.135056 -7.400203 1.363499 16.485669 6.865790 2.224092 5.035822 0.000000 0.000000 0.000000 0.899432 0.493433 -2.367505 -3.897999 2.583121 -6.376937 0.382962 -3.028697 3.916959 -0.011354 0.001209 0.022794 -0.012903 -1.322303 6.827914 -0.025606 -0.209003 16.506626 0.000000 0.000000 0.000000 1.434385 -0.530028 3.670816 -8.012099 0.868894 -6.020004 -5.450307 12.935729 -37.545960 0.875134 -43.482634 -2.431649 0.000000 0.000000 0.000000 -1.991553 0.193956 3.334330 21.515301 -4.838453 -11.100917 10.471522 -15.303847 -52.962571 0.663189 30.115868 3.768882 0.000000 0.000000 0.000000 
-1.575867 35.914288 17.698074 -179.854754 3.609434 -179.836859 -3.413454 -3.592758 9.430160 -15.793083 4.630676 -17.498327 16.691247 7.686339 21.939020 1.001748 -3.303488 4.432657 0.000000 0.000000 0.000000 1.390866 -0.971756 7.589893 0.524316 1.320661 -12.068466 -7.376220 1.460326 16.486202 6.912381 2.202073 4.998070 0.000000 0.000000 0.000000 0.882014 0.417100 -2.309876 -3.912653 2.667340 -6.343120 0.438093 -3.022988 3.907911 -0.008348 -0.013241 0.048820 0.037173 -1.277806 6.870293 -0.006576 -0.396266 16.683895 0.000000 0.000000 0.000000 1.474824 -0.479562 3.671735 -7.909624 0.758008 -6.208089 -6.096562 13.039223 -37.693471 0.795671 -43.428238 -1.972086 0.000000 0.000000 0.000000 -1.946295 0.203951 3.353204 21.335445 -4.679215 -10.798999 10.836512 -15.466260 -53.649845 0.837228 30.245840 3.655494 0.000000 0.000000 0.000000 
-1.577561 35.911846 17.702862 -179.929026 3.564430 -179.852487 -3.505518 -3.598653 9.406296 -15.796979 4.597904 -17.476716 16.717573 7.758467 21.972304 0.931771 -3.342340 4.440039 0.000000 0.000000 0.000000 1.317255 -1.026198 7.521173 0.520241 1.227192 -12.002810 -7.375262 1.560672 16.507169 6.965309 2.165386 5.001937 0.000000 0.000000 0.000000 0.780798 0.525595 -2.212817 -3.974586 2.748571 -6.287139 0.486412 -3.078765 3.911529 -0.024842 -0.055606 0.019207 0.126882 -1.289664 6.994203 -0.023376 -0.509996 16.838267 0.000000 0.000000 0.000000 1.589000 -0.478280 3.751809 -7.702609 0.585910 -6.163977 -7.228060 13.292671 -37.891974 0.959210 -43.302235 -1.722614 0.000000 0.000000 0.000000 -1.824586 0.230181 3.455038 21.013728 -4.413658 -10.315292 11.472051 -15.581359 -54.453909 1.048447 30.542670 3.465474 0.000000 0.000000 0.000000 
-1.590506 35.914703 17.721413 -179.943000 3.558269 -179.913945 -3.506504 -3.544045 9.440214 -15.754782 4.609290 -17.537675 16.742583 7.876296 22.036960 0.866588 -3.374869 4.461343 0.000000 0.000000 0.000000 1.352121 -1.059813 7.495767 0.519503 1.183416 -11.989056 -7.316159 1.653496 16.519663 7.001095 2.169418 5.007951 0.000000 0.000000 0.000000 0.749620 0.318001 -2.067189 -3.975176 2.960500 -6.280915 0.572164 -3.031786 3.951273 -0.017136 -0.000850 0.017277 0.213586 -1.311048 7.159485 -0.028851 -0.539005 17.019949 0.000000 0.000000 0.000000 1.644917 -0.532768 3.815655 -7.409821 0.339024 -5.913153 -8.901908 14.072709 -37.837694 1.069273 -43.515876 -1.362220 0.000000 0.000000 0.000000 -1.739233 0.225284 3.549497 20.552077 -4.058118 -9.778060 12.427062 -15.922423 -54.761827 1.296963 31.170436 3.266548 0.000000 0.000000 0.000000 
-1.604787 35.922009 17.746534 -179.911609 3.562243 -179.859317 -3.524326 -3.491241 9.518901 -15.680731 4.669884 -17.729472 16.708231 8.073777 22.127337 0.752972 -3.450142 4.461392 0.000000 0.000000 0.000000 1.393618 -1.061266 7.505353 0.445994 1.118349 -12.130866 -7.291778 1.702988 16.536487 7.015866 2.165666 5.063219 0.000000 0.000000 0.000000 0.689921 0.300034 -1.967941 -3.908880 3.182216 -6.333526 0.635945 -3.065170 3.989798 -0.019071 0.026269 0.008625 0.268334 -1.357349 7.353212 -0.042919 -0.489649 17.127130 0.000000 0.000000 0.000000 1.688807 -0.612415 4.019169 -7.103297 0.052351 -5.875082 -11.086277 15.051121 -36.966664 1.127566 -43.980725 -0.907543 0.000000 0.000000 0.000000 -1.691990 0.143885 3.714681 20.049626 -3.677745 -9.192846 13.887378 -16.369073 -54.037277 1.458575 32.099902 3.056605 0.000000 0.000000 0.000000 
